# This file uses centimeters as units for non-parametric coordinates.

mtllib Apple.mtl
g default
v -0.220524 -0.795755 -0.381959
v 0.321439 -0.420576 -0.556749
v -0.642878 -0.420576 0.000000
v 0.642879 -0.420576 0.000000
v 0.356816 0.043169 -0.618023
v -0.356815 0.043169 -0.618023
v -0.713632 0.043169 0.000000
v -0.356815 0.043169 0.618023
v 0.356816 0.043169 0.618023
v 0.713632 0.043169 0.000000
v -0.220524 0.418348 -0.381959
v -0.220524 0.418348 0.381959
v 0.220524 0.318235 0.381959
v 0.441049 0.318235 0.000000
v -0.130751 0.764425 -0.070835
v -0.196814 0.713734 -0.043778
v -0.196814 0.713734 0.043778
v -0.130751 0.764425 0.070835
v -0.089921 0.795755 0.000000
v -0.190903 0.786489 0.000000
v 0.024403 0.504280 -0.070835
v -0.050024 0.466934 -0.043778
v -0.050024 0.466934 0.043778
v 0.024403 0.504280 0.070835
v 0.070401 0.527360 0.000000
v -0.525712 -0.420576 -0.202939
v 0.361837 -0.420576 0.486777
v -0.701393 0.043169 -0.021199
v 0.334044 -0.255335 0.578582
v 0.121179 0.043169 0.618023
v -0.272363 0.275647 0.471747
v -0.202511 -0.420577 0.556749
v 0.036521 0.043169 -0.618023
v 0.069204 0.352583 0.381959
v -0.019710 0.126397 0.565656
v -0.563506 -0.420576 0.137476
v 0.627550 -0.420576 -0.026550
v -0.683842 0.043169 0.051598
v 0.638299 0.043169 -0.130480
v 0.348319 0.360332 -0.160613
v -0.587550 0.216706 0.000000
v -0.660640 0.084983 0.039166
v -0.012944 -0.795755 -0.381959
v 0.503582 -0.420576 0.241269
v -0.057216 0.043169 -0.618023
v 0.574689 0.043169 0.240657
v 0.440602 0.318235 0.000775
v -0.083681 -0.420577 -0.556749
vt 0.922647 0.166631
vt 0.885179 0.118238
vt 0.881429 0.209821
vt 0.889135 0.070326
vt 0.838902 0.162435
vt 0.838398 0.116596
vt 0.834978 0.207400
vt 0.824172 0.256037
vt 0.804155 0.306393
vt 0.833548 0.069264
vt 0.824382 0.006087
vt 0.795577 0.158004
vt 0.783387 0.221250
vt 0.755970 0.255833
vt 0.792283 0.088868
vt 0.768101 0.051748
vt 0.689795 0.143967
vt 0.700216 0.143541
vt 0.701649 0.172689
vt 0.694523 0.175489
vt 0.711016 0.143302
vt 0.708708 0.173031
vt 0.721416 0.144203
vt 0.715735 0.175960
vt 0.731333 0.144843
vt 0.722152 0.181545
vt 0.704984 0.181883
vt 0.882090 0.193108
vt 0.903662 0.023808
vt 0.835113 0.205858
vt 0.856896 0.313577
vt 0.876757 0.013189
vt 0.810765 0.289766
vt 0.798900 0.234481
vt 0.881745 0.270134
vt 0.838624 0.137170
vt 0.765377 0.243968
vt 0.806517 0.269974
vt 0.881263 0.222056
vt 0.888946 0.072611
vt 0.834076 0.211461
vt 0.834572 0.079257
vt 0.793439 0.104694
vt 0.815284 0.199097
vt 0.829428 0.208571
vt 0.924045 0.150820
vt 0.896335 0.047269
vt 0.838690 0.143191
vt 0.829979 0.044663
vt 0.792234 0.088793
vt 0.883959 0.147057
vn 0.488634 0.174931 -0.854772
vn 0.480866 -0.273993 -0.832884
vn 0.000000 -0.130990 -0.991384
vn -0.961732 -0.273993 0.000000
vn -0.858563 -0.130991 0.495693
vn -0.858563 -0.130991 0.495693
vn -0.985486 0.169759 -0.000000
vn 0.961732 -0.273993 0.000000
vn 0.858563 -0.130990 -0.495693
vn 0.985243 0.171108 -0.004245
vn 0.858563 -0.130990 -0.495693
vn 0.488945 0.171108 0.855368
vn 0.657188 0.651259 0.379429
vn 0.657189 0.651258 0.379429
vn 0.322175 0.767797 0.553797
vn 0.985243 0.171108 -0.004245
vn 0.697334 0.646677 -0.309086
vn 0.697334 0.646677 -0.309086
vn 0.640690 0.767797 0.002113
vn 0.399228 0.108851 -0.910367
vn -0.730127 -0.219063 -0.647245
vn -0.712606 -0.347916 -0.609219
vn 0.260322 0.256609 -0.930798
vn -0.730127 -0.219063 -0.647245
vn -0.730127 -0.219063 0.647245
vn -0.712606 -0.347915 0.609219
vn -0.712606 -0.347916 -0.609219
vn -0.730127 -0.219063 0.647245
vn 0.399227 0.108851 0.910368
vn 0.260322 0.256609 0.930798
vn -0.712606 -0.347915 0.609219
vn 0.399227 0.108851 0.910368
vn 0.948502 0.316772 0.000000
vn 0.260322 0.256609 0.930798
vn 0.804027 0.594592 0.000000
vn 0.260322 0.256609 -0.930798
vn -0.712606 -0.347916 -0.609219
vn -0.639456 0.768827 0.000000
vn -0.712606 -0.347916 -0.609219
vn -0.712606 -0.347915 0.609219
vn -0.639456 0.768827 0.000000
vn -0.858564 -0.130991 -0.495691
vn -0.858564 -0.130991 -0.495691
vn -0.961732 -0.273993 0.000000
vn -0.985486 0.169759 -0.000000
vn 0.000000 -0.130990 0.991384
vn 0.000000 -0.130990 0.991384
vn 0.488945 0.171108 0.855368
vn 0.488945 0.171108 0.855368
vn 0.858563 -0.130993 0.495693
vn 0.858563 -0.130992 0.495693
vn 0.858563 -0.130991 0.495692
vn 0.858563 -0.130992 0.495693
vn 0.085563 0.572101 0.815708
vn 0.085563 0.572101 0.815708
vn 0.085563 0.572101 0.815708
vn -0.329304 0.760346 0.559850
vn 0.000000 -0.130990 0.991384
vn -0.492743 0.169759 -0.853456
vn -0.342674 0.728214 -0.593530
vn 0.000000 0.532556 -0.846395
vn 0.488945 0.171108 0.855368
vn 0.322175 0.767797 0.553797
vn 0.000000 0.651256 0.758858
vn 0.480866 -0.273993 -0.832884
vn 0.488634 0.174931 -0.854772
vn -0.732999 0.532556 0.423199
vn -0.732998 0.532557 0.423198
vn -0.495938 0.174931 0.850556
vn -0.732998 0.532556 0.423198
vn -0.733001 0.532553 0.423199
vn 0.000000 -0.422305 -0.906454
vn 0.000000 -0.422305 -0.906454
vn 0.000000 -0.422305 -0.906454
vn 0.985243 0.171108 -0.004245
vn 0.640690 0.767797 0.002113
s off
g AppleBroke3
usemtl lambert2SG
f 5/6/1 2/2/2 33/36/3
f 3/3/4 36/39/5 38/41/6 7/7/7
s 1
f 4/4/8 37/40/9 10/10/10
f 10/10/10 37/40/9 39/42/11
s 2
f 9/11/12 46/49/13 47/50/14 13/16/15
s off
f 10/10/16 39/42/17 40/43/18 14/15/19
f 21/17/20 22/18/21 16/19/22 15/20/23
f 22/18/24 23/21/25 17/22/26 16/19/27
f 23/21/28 24/23/29 18/24/30 17/22/31
s 3
f 24/23/32 25/25/33 18/24/34
f 18/24/34 25/25/33 19/26/35
s off
f 15/20/36 16/19/37 20/27/38
f 16/19/39 17/22/40 20/27/41
f 28/30/42 26/28/43 3/3/44 7/7/45
s 4
f 30/33/46 29/31/47 9/9/48
s 5
f 9/11/49 29/32/50 46/49/51
f 44/47/52 46/49/51 27/29/53
f 29/32/50 27/29/53 46/49/51
s off
f 31/34/54 35/38/55 34/37/56 12/13/57
s 4
f 29/31/47 30/33/46 32/35/58
s off
f 6/5/59 11/12/60 45/48/61
f 9/9/62 13/14/63 30/33/64
s 1
f 39/42/11 37/40/9 2/2/65 5/6/66
s 6
f 42/45/67 38/41/68 8/8/69 31/34/70
f 42/45/67 31/34/70 41/44/71
s off
f 43/46/72 1/1/73 48/51/74
s 2
f 47/50/14 46/49/13 10/10/75 14/15/76
g default
v 0.220524 -0.724103 -0.381959
v -0.220524 -0.724103 -0.381959
v -0.441048 -0.724103 0.000000
v -0.220524 -0.724103 0.381959
v 0.220524 -0.724103 0.381959
v 0.441049 -0.724103 0.000000
v 0.321439 -0.348924 -0.556749
v -0.321439 -0.348924 -0.556749
v -0.642878 -0.348924 0.000000
v -0.321439 -0.348924 0.556749
v 0.321439 -0.348924 0.556749
v 0.642879 -0.348924 0.000000
v 0.356816 0.114822 -0.618023
v -0.356815 0.114822 -0.618023
v -0.713632 0.114822 0.000000
v -0.356815 0.114822 0.618023
v 0.356816 0.114822 0.618023
v 0.713632 0.114822 0.000000
v 0.220524 0.490000 -0.381959
v -0.220524 0.490000 -0.381959
v -0.441048 0.490000 0.000000
v -0.220524 0.490000 0.381959
v 0.220524 0.389888 0.381959
v 0.441049 0.389888 0.000000
v 0.000000 -0.867408 0.000000
v 0.000000 0.362412 0.000000
v 0.026091 0.333237 -0.070835
v -0.057180 0.333237 -0.043778
v -0.057180 0.333237 0.043778
v 0.026091 0.333237 0.070835
v 0.077556 0.333237 0.000000
v -0.130751 0.836078 -0.070835
v -0.196814 0.785386 -0.043778
v -0.196814 0.785386 0.043778
v -0.130751 0.836078 0.070835
v -0.089921 0.867408 0.000000
v 0.003076 0.333237 0.000000
v -0.190903 0.858142 0.000000
v 0.024403 0.575932 -0.070835
v -0.050024 0.538587 -0.043778
v -0.050024 0.538587 0.043778
v 0.024403 0.575932 0.070835
v 0.070401 0.599012 0.000000
vt 0.925618 0.133037
vt 0.922647 0.166631
vt 0.883243 0.163970
vt 0.885179 0.118238
vt 0.922390 0.200467
vt 0.881429 0.209821
vt 0.928056 0.236605
vt 0.880758 0.259371
vt 0.953101 0.273297
vt 0.886092 0.317554
vt 0.958956 0.070329
vt 0.934121 0.099009
vt 0.889135 0.070326
vt 0.905750 0.017121
vt 0.838902 0.162435
vt 0.838398 0.116596
vt 0.834978 0.207400
vt 0.824172 0.256037
vt 0.804155 0.306393
vt 0.833548 0.069264
vt 0.824382 0.006087
vt 0.795577 0.158004
vt 0.795033 0.126504
vt 0.792400 0.189450
vt 0.783387 0.221250
vt 0.755970 0.255833
vt 0.792283 0.088868
vt 0.768101 0.051748
vt 0.969577 0.168753
vt 0.749408 0.153835
vt 0.689795 0.143967
vt 0.700216 0.143541
vt 0.701649 0.172689
vt 0.694523 0.175489
vt 0.711016 0.143302
vt 0.708708 0.173031
vt 0.721416 0.144203
vt 0.715735 0.175960
vt 0.731333 0.144843
vt 0.722152 0.181545
vt 0.679866 0.144290
vt 0.687919 0.180891
vt 0.703456 0.122620
vt 0.698084 0.120510
vt 0.706179 0.115638
vt 0.708502 0.123205
vt 0.713971 0.120962
vt 0.719912 0.114449
vt 0.692414 0.113822
vt 0.704984 0.181883
vn 0.000000 -0.422303 -0.906455
vn 0.000000 -0.422303 -0.906455
vn 0.000000 -0.422303 -0.906455
vn 0.000000 -0.422303 -0.906455
vn -0.399495 -0.601344 -0.691946
vn -0.798990 -0.601344 0.000000
vn -0.961732 -0.273993 0.000000
vn -0.480866 -0.273993 -0.832884
vn -0.798990 -0.601344 0.000000
vn -0.399495 -0.601345 0.691946
vn -0.480866 -0.273993 0.832884
vn -0.961732 -0.273993 0.000000
vn -0.399495 -0.601345 0.691946
vn 0.399495 -0.601344 0.691946
vn 0.480866 -0.273993 0.832884
vn -0.480866 -0.273993 0.832884
vn 0.399495 -0.601344 0.691946
vn 0.798990 -0.601344 0.000000
vn 0.961732 -0.273993 0.000000
vn 0.480866 -0.273993 0.832884
vn 0.798990 -0.601344 0.000000
vn 0.399495 -0.601344 -0.691946
vn 0.480866 -0.273993 -0.832884
vn 0.961732 -0.273993 0.000000
vn 0.480866 -0.273993 -0.832884
vn -0.480866 -0.273993 -0.832884
vn -0.492743 0.169759 -0.853456
vn 0.488634 0.174931 -0.854772
vn -0.480866 -0.273993 -0.832884
vn -0.961732 -0.273993 0.000000
vn -0.985486 0.169759 -0.000000
vn -0.492743 0.169759 -0.853456
vn -0.961732 -0.273993 0.000000
vn -0.480866 -0.273993 0.832884
vn -0.495938 0.174931 0.850556
vn -0.985486 0.169759 -0.000000
vn -0.480866 -0.273993 0.832884
vn 0.480866 -0.273993 0.832884
vn 0.488945 0.171108 0.855368
vn -0.495938 0.174931 0.850556
vn 0.480866 -0.273993 0.832884
vn 0.961732 -0.273993 0.000000
vn 0.985243 0.171108 -0.004245
vn 0.488945 0.171108 0.855368
vn 0.961732 -0.273993 0.000000
vn 0.480866 -0.273993 -0.832884
vn 0.488634 0.174931 -0.854772
vn 0.985243 0.171108 -0.004245
vn 0.488634 0.174931 -0.854772
vn -0.492743 0.169759 -0.853456
vn -0.342674 0.728214 -0.593530
vn 0.320193 0.760346 -0.565111
vn -0.492743 0.169759 -0.853456
vn -0.985486 0.169759 -0.000000
vn -0.685349 0.728215 0.000000
vn -0.342674 0.728214 -0.593530
vn -0.985486 0.169759 -0.000000
vn -0.495938 0.174931 0.850556
vn -0.329304 0.760346 0.559850
vn -0.685349 0.728215 0.000000
vn -0.495938 0.174931 0.850556
vn 0.488945 0.171108 0.855368
vn 0.322175 0.767797 0.553797
vn -0.329304 0.760346 0.559850
vn 0.488945 0.171108 0.855368
vn 0.985243 0.171108 -0.004245
vn 0.640690 0.767797 0.002113
vn 0.322175 0.767797 0.553797
vn 0.985243 0.171108 -0.004245
vn 0.488634 0.174931 -0.854772
vn 0.320193 0.760346 -0.565111
vn 0.640690 0.767797 0.002113
vn -0.399495 -0.601344 -0.691946
vn 0.399495 -0.601344 -0.691946
vn 0.000000 -1.000000 0.000000
vn -0.798990 -0.601344 0.000000
vn -0.399495 -0.601344 -0.691946
vn 0.000000 -1.000000 0.000000
vn -0.399495 -0.601345 0.691946
vn -0.798990 -0.601344 0.000000
vn 0.000000 -1.000000 0.000000
vn 0.399495 -0.601344 0.691946
vn -0.399495 -0.601345 0.691946
vn 0.000000 -1.000000 0.000000
vn 0.798990 -0.601344 0.000000
vn 0.399495 -0.601344 0.691946
vn 0.000000 -1.000000 0.000000
vn 0.399495 -0.601344 -0.691946
vn 0.798990 -0.601344 0.000000
vn 0.000000 -1.000000 0.000000
vn 0.320193 0.760346 -0.565111
vn -0.342674 0.728214 -0.593530
vn 0.110850 0.991774 0.063999
vn -0.342674 0.728214 -0.593530
vn -0.685349 0.728215 0.000000
vn 0.110850 0.991774 0.063999
vn -0.685349 0.728215 0.000000
vn -0.329304 0.760346 0.559850
vn 0.110850 0.991774 0.063999
vn -0.329304 0.760346 0.559850
vn 0.322175 0.767797 0.553797
vn 0.110850 0.991774 0.063999
vn 0.322175 0.767797 0.553797
vn 0.640690 0.767797 0.002113
vn 0.110850 0.991774 0.063999
vn 0.640690 0.767797 0.002113
vn 0.320193 0.760346 -0.565111
vn 0.110850 0.991774 0.063999
vn 0.399228 0.108851 -0.910367
vn -0.730127 -0.219063 -0.647245
vn -0.712606 -0.347916 -0.609219
vn 0.260322 0.256609 -0.930798
vn -0.730127 -0.219063 -0.647245
vn -0.730127 -0.219063 0.647245
vn -0.712606 -0.347915 0.609219
vn -0.712606 -0.347916 -0.609219
vn -0.730127 -0.219063 0.647245
vn 0.399227 0.108851 0.910368
vn 0.260322 0.256609 0.930798
vn -0.712606 -0.347915 0.609219
vn 0.399227 0.108851 0.910368
vn 0.948502 0.316772 0.000000
vn 0.804027 0.594592 0.000000
vn 0.260322 0.256609 0.930798
vn 0.948502 0.316772 0.000000
vn 0.399228 0.108851 -0.910367
vn 0.260322 0.256609 -0.930798
vn 0.804027 0.594592 0.000000
vn -0.808323 -0.083376 -0.582805
vn 0.370433 -0.085607 -0.924906
vn 0.000000 -1.000000 0.000000
vn -0.808323 -0.083376 0.582805
vn -0.808323 -0.083376 -0.582805
vn 0.000000 -1.000000 0.000000
vn 0.370433 -0.085607 0.924906
vn -0.808323 -0.083376 0.582805
vn 0.000000 -1.000000 0.000000
vn 0.997461 -0.071208 0.000000
vn 0.370433 -0.085607 0.924906
vn 0.000000 -1.000000 0.000000
vn 0.370433 -0.085607 -0.924906
vn 0.997461 -0.071208 0.000000
vn 0.000000 -1.000000 0.000000
vn 0.260322 0.256609 -0.930798
vn -0.712606 -0.347916 -0.609219
vn -0.639456 0.768827 0.000000
vn -0.712606 -0.347916 -0.609219
vn -0.712606 -0.347915 0.609219
vn -0.639456 0.768827 0.000000
vn -0.712606 -0.347915 0.609219
vn 0.260322 0.256609 0.930798
vn -0.639456 0.768827 0.000000
vn 0.260322 0.256609 0.930798
vn 0.804027 0.594592 0.000000
vn -0.639456 0.768827 0.000000
vn 0.804027 0.594592 0.000000
vn 0.260322 0.256609 -0.930798
vn -0.639456 0.768827 0.000000
vn 0.370433 -0.085607 -0.924906
vn -0.808323 -0.083376 -0.582805
vn -0.730127 -0.219063 -0.647245
vn 0.399228 0.108851 -0.910367
vn -0.808323 -0.083376 -0.582805
vn -0.808323 -0.083376 0.582805
vn -0.730127 -0.219063 0.647245
vn -0.730127 -0.219063 -0.647245
vn -0.808323 -0.083376 0.582805
vn 0.370433 -0.085607 0.924906
vn 0.399227 0.108851 0.910368
vn -0.730127 -0.219063 0.647245
vn 0.370433 -0.085607 0.924906
vn 0.997461 -0.071208 0.000000
vn 0.948502 0.316772 0.000000
vn 0.399227 0.108851 0.910368
vn 0.997461 -0.071208 0.000000
vn 0.370433 -0.085607 -0.924906
vn 0.399228 0.108851 -0.910367
vn 0.948502 0.316772 0.000000
s off
g Apple
usemtl lambert2SG
f 49/52/77 50/53/78 56/54/79 55/55/80
f 50/53/81 51/56/82 57/57/83 56/54/84
f 51/56/85 52/58/86 58/59/87 57/57/88
f 52/58/89 53/60/90 59/61/91 58/59/92
f 53/62/93 54/63/94 60/64/95 59/65/96
f 54/63/97 49/52/98 55/55/99 60/64/100
f 55/55/101 56/54/102 62/66/103 61/67/104
f 56/54/105 57/57/106 63/68/107 62/66/108
f 57/57/109 58/59/110 64/69/111 63/68/112
f 58/59/113 59/61/114 65/70/115 64/69/116
f 59/65/117 60/64/118 66/71/119 65/72/120
f 60/64/121 55/55/122 61/67/123 66/71/124
f 61/67/125 62/66/126 68/73/127 67/74/128
f 62/66/129 63/68/130 69/75/131 68/73/132
f 63/68/133 64/69/134 70/76/135 69/75/136
f 64/69/137 65/70/138 71/77/139 70/76/140
f 65/72/141 66/71/142 72/78/143 71/79/144
f 66/71/145 61/67/146 67/74/147 72/78/148
f 50/53/149 49/52/150 73/80/151
f 51/56/152 50/53/153 73/80/154
f 52/58/155 51/56/156 73/80/157
f 53/60/158 52/58/159 73/80/160
f 54/63/161 53/62/162 73/80/163
f 49/52/164 54/63/165 73/80/166
f 67/74/167 68/73/168 74/81/169
f 68/73/170 69/75/171 74/81/172
f 69/75/173 70/76/174 74/81/175
f 70/76/176 71/77/177 74/81/178
f 71/79/179 72/78/180 74/81/181
f 72/78/182 67/74/183 74/81/184
f 87/82/185 88/83/186 81/84/187 80/85/188
f 88/83/189 89/86/190 82/87/191 81/84/192
f 89/86/193 90/88/194 83/89/195 82/87/196
f 90/88/197 91/90/198 84/91/199 83/89/200
f 91/92/201 87/82/202 80/85/203 84/93/204
f 76/94/205 75/95/206 85/96/207
f 77/97/208 76/94/209 85/96/210
f 78/98/211 77/97/212 85/96/213
f 79/99/214 78/98/215 85/96/216
f 75/95/217 79/100/218 85/96/219
f 80/85/220 81/84/221 86/101/222
f 81/84/223 82/87/224 86/101/225
f 82/87/226 83/89/227 86/101/228
f 83/89/229 84/91/230 86/101/231
f 84/93/232 80/85/233 86/101/234
f 75/95/235 76/94/236 88/83/237 87/82/238
f 76/94/239 77/97/240 89/86/241 88/83/242
f 77/97/243 78/98/244 90/88/245 89/86/246
f 78/98/247 79/99/248 91/90/249 90/88/250
f 79/100/251 75/95/252 87/82/253 91/92/254
g default
v -0.170217 0.187589 0.118032
v -0.006910 -0.187589 -0.118032
v 0.170217 0.099332 0.062500
vt 0.795577 0.158004
vt 0.838690 0.143191
vt 0.805358 0.133107
vn 0.000000 0.532557 -0.846394
vn 0.000000 0.532557 -0.846394
vn -0.342674 0.728214 -0.593530
s off
g AppleBroke2
usemtl lambert2SG
f 94/104/255 93/103/256 92/102/257
g default
v -0.377696 -0.719470 0.000000
v -0.157172 -0.719470 0.381959
v 0.283876 -0.719470 0.381959
v -0.258087 -0.344291 -0.556749
v -0.579526 -0.344291 0.000000
v -0.258087 -0.344291 0.556749
v 0.384791 -0.344291 0.556749
v 0.420168 0.119455 -0.618023
v -0.293463 0.119455 -0.618023
v -0.293463 0.119455 0.618023
v 0.420168 0.119455 0.618023
v -0.157172 0.494633 -0.381959
v -0.377696 0.494633 0.000000
v -0.157172 0.494633 0.381959
v 0.283876 0.394521 0.381959
v 0.063352 -0.862775 0.000000
v 0.063352 0.367045 0.000000
v -0.067399 0.840711 -0.070835
v -0.133462 0.790019 -0.043778
v -0.133462 0.790019 0.043778
v -0.067399 0.840711 0.070835
v -0.127551 0.862775 0.000000
v 0.087755 0.580565 -0.070835
v 0.013328 0.543220 -0.043778
v 0.013328 0.543220 0.043778
v 0.087755 0.580565 0.070835
v -0.462360 -0.344291 -0.202939
v 0.388484 -0.719470 0.200774
v 0.425189 -0.344291 0.486777
v -0.638041 0.119455 -0.021199
v 0.397396 -0.179049 0.578582
v 0.184530 0.119455 0.618023
v -0.632443 0.144006 0.000000
v -0.209011 0.351933 0.471747
v -0.174506 -0.655025 -0.411983
v -0.060006 -0.344291 -0.556749
v -0.242099 -0.719470 0.234861
v -0.202086 -0.552490 0.459752
v -0.139159 -0.344291 0.556749
v 0.099873 0.119455 -0.618023
v 0.132556 0.428869 0.381959
v -0.240369 -0.764090 0.000000
v 0.133286 0.375758 0.121129
v 0.012009 0.119455 0.618023
v 0.043642 0.202682 0.565656
v -0.268862 -0.719470 0.188507
v -0.500154 -0.344291 0.137476
v -0.620490 0.119455 0.051598
v -0.337102 0.494633 -0.070312
v -0.037008 -0.797557 0.173828
v 0.149982 -0.806479 0.150048
v 0.007510 0.399353 -0.096721
v -0.524198 0.292992 0.000000
v -0.597288 0.161269 0.039166
v 0.315318 -0.758998 0.116789
v -0.241745 -0.728603 0.186790
v 0.006136 0.119455 -0.618023
v 0.638041 0.119455 0.240657
v 0.503954 0.394521 0.000775
v 0.428384 -0.719470 0.131665
v -0.012459 -0.206376 -0.574972
v 0.183263 0.406376 -0.437491
v 0.402315 -0.734014 0.099289
vt 0.883243 0.163970
vt 0.922390 0.200467
vt 0.881429 0.209821
vt 0.928056 0.236605
vt 0.880758 0.259371
vt 0.953101 0.273297
vt 0.886092 0.317554
vt 0.958956 0.070329
vt 0.838902 0.162435
vt 0.838398 0.116596
vt 0.824172 0.256037
vt 0.804155 0.306393
vt 0.824382 0.006087
vt 0.795577 0.158004
vt 0.792400 0.189450
vt 0.783387 0.221250
vt 0.755970 0.255833
vt 0.768101 0.051748
vt 0.969577 0.168753
vt 0.749408 0.153835
vt 0.689795 0.143967
vt 0.700216 0.143541
vt 0.701649 0.172689
vt 0.694523 0.175489
vt 0.711016 0.143302
vt 0.708708 0.173031
vt 0.721416 0.144203
vt 0.715735 0.175960
vt 0.704984 0.181883
vt 0.882090 0.193108
vt 0.947175 0.083934
vt 0.903662 0.023808
vt 0.835113 0.205858
vt 0.856896 0.313577
vt 0.876757 0.013189
vt 0.810765 0.289766
vt 0.832192 0.206225
vt 0.798900 0.234481
vt 0.915879 0.166174
vt 0.883839 0.149879
vt 0.925874 0.222688
vt 0.907005 0.246737
vt 0.881745 0.270134
vt 0.838624 0.137170
vt 0.765377 0.243968
vt 0.937082 0.190592
vt 0.751489 0.186181
vt 0.815604 0.277592
vt 0.806517 0.269974
vt 0.925186 0.218302
vt 0.881263 0.222056
vt 0.834076 0.211461
vt 0.792985 0.183661
vt 0.950681 0.199632
vt 0.963105 0.209822
vt 0.965405 0.130088
vt 0.761099 0.154891
vt 0.815284 0.199097
vt 0.829428 0.208571
vt 0.951495 0.109477
vt 0.928168 0.216119
vt 0.838690 0.143191
vt 0.829979 0.044663
vt 0.792234 0.088793
vt 0.942682 0.089123
vt 0.870393 0.146099
vt 0.805358 0.133107
vt 0.944175 0.098632
vn -0.798990 -0.601344 0.000000
vn -0.785013 -0.422302 0.453228
vn -0.785013 -0.422301 0.453228
vn -0.961732 -0.273993 0.000000
vn -0.399495 -0.601345 0.691946
vn 0.399495 -0.601344 0.691946
vn 0.000000 -0.422303 0.906455
vn -0.480866 -0.273993 -0.832884
vn -0.858563 -0.130990 -0.495693
vn -0.858563 -0.130990 -0.495693
vn -0.492743 0.169759 -0.853456
vn -0.480866 -0.273993 0.832884
vn 0.000000 -0.130990 0.991384
vn 0.000000 -0.130990 0.991384
vn -0.495938 0.174931 0.850556
vn 0.488634 0.174931 -0.854772
vn 0.000000 0.532557 -0.846394
vn 0.000000 0.532557 -0.846394
vn -0.492743 0.169759 -0.853456
vn -0.732999 0.532556 -0.423198
vn -0.342674 0.728214 -0.593530
vn -0.732998 0.532559 -0.423196
vn -0.732999 0.532557 -0.423198
vn -0.732999 0.532556 -0.423198
vn -0.495938 0.174931 0.850556
vn 0.000000 0.532556 0.846395
vn 0.000000 0.532556 0.846395
vn 0.000000 0.532556 0.846395
vn 0.488945 0.171108 0.855368
vn 0.657188 0.651259 0.379429
vn 0.657188 0.651259 0.379429
vn 0.322175 0.767797 0.553797
vn -0.399495 -0.601345 0.691946
vn -0.304213 -0.936273 0.175637
vn -0.304213 -0.936272 0.175638
vn -0.304213 -0.936272 0.175638
vn 0.399495 -0.601344 0.691946
vn -0.399495 -0.601345 0.691946
vn -0.000000 -0.936273 0.351274
vn -0.000000 -0.936273 0.351274
vn -0.342674 0.728214 -0.593530
vn 0.274381 0.948483 0.158414
vn 0.274381 0.948483 0.158414
vn -0.329304 0.760346 0.559850
vn 0.217143 0.956631 -0.194183
vn 0.217143 0.956631 -0.194183
vn 0.110850 0.991774 0.063999
vn 0.399228 0.108851 -0.910367
vn -0.730127 -0.219063 -0.647245
vn -0.712606 -0.347916 -0.609219
vn 0.260322 0.256609 -0.930798
vn -0.730127 -0.219063 -0.647245
vn -0.730127 -0.219063 0.647245
vn -0.712606 -0.347915 0.609219
vn -0.712606 -0.347916 -0.609219
vn -0.730127 -0.219063 0.647245
vn 0.399227 0.108851 0.910368
vn 0.260322 0.256609 0.930798
vn -0.712606 -0.347915 0.609219
vn 0.260322 0.256609 -0.930798
vn -0.712606 -0.347916 -0.609219
vn -0.639456 0.768827 0.000000
vn -0.712606 -0.347916 -0.609219
vn -0.712606 -0.347915 0.609219
vn -0.639456 0.768827 0.000000
vn 0.858563 -0.130992 0.495693
vn 0.858563 -0.130992 0.495693
vn 0.858563 -0.130992 0.495693
vn 0.000000 -0.422305 -0.906454
vn 0.000000 -0.422305 -0.906454
vn 0.000000 -0.422305 -0.906454
vn -0.785015 -0.422300 0.453228
vn -0.785014 -0.422300 0.453228
vn -0.399495 -0.601345 0.691946
vn 0.000000 -0.422301 0.906456
vn 0.000000 -0.422301 0.906456
vn -0.480866 -0.273993 0.832884
vn 0.480866 -0.273993 0.832884
vn -0.000000 -0.130990 0.991384
vn -0.000000 -0.130990 0.991384
vn 0.000000 -0.130990 0.991384
vn 0.488945 0.171108 0.855368
vn 0.322175 0.767797 0.553797
vn 0.024358 0.645983 0.762963
vn 0.139673 0.615344 0.775785
vn -0.685349 0.728215 0.000000
vn -0.732998 0.532557 0.423198
vn -0.732998 0.532557 0.423198
vn -0.495938 0.174931 0.850556
vn -0.732998 0.532557 0.423198
vn -0.304213 -0.936272 0.175638
vn 0.000000 -1.000000 0.000000
vn 0.000000 -1.000000 0.000000
vn 0.304211 -0.936273 0.175638
vn 0.304213 -0.936272 0.175639
vn 0.304213 -0.936272 0.175639
vn 0.304211 -0.936273 0.175638
vn -0.685349 0.728215 0.000000
vn 0.110850 0.991774 0.063999
vn -0.732998 0.532558 0.423198
vn -0.732999 0.532557 0.423198
vn -0.685349 0.728215 0.000000
vn -0.329304 0.760346 0.559850
vn 0.304211 -0.936273 0.175638
vn 0.399495 -0.601344 0.691946
vn -0.000001 -0.130989 -0.991384
vn -0.000001 -0.130989 -0.991384
vn -0.480866 -0.273993 -0.832884
s 1
g AppleBroke1
usemtl lambert2SG
f 95/106/258 140/154/259 141/155/260 99/107/261
s off
f 96/108/262 97/110/263 132/146/264
f 98/105/265 121/134/266 124/137/267 103/113/268
s 2
f 100/109/269 133/147/270 138/152/271 104/115/272
s off
f 102/114/273 134/148/274 156/171/275
s 3
f 103/113/276 124/137/277 106/118/278
f 124/137/277 127/141/279 106/118/278
f 127/141/279 147/162/280 106/118/278
f 147/162/280 143/157/281 106/118/278
s off
f 104/115/282 138/152/283 139/153/284 128/142/285
f 105/117/286 152/167/287 153/168/288 109/122/289
s 4
f 96/108/290 131/145/291 150/165/292 144/158/293
s 5
f 97/110/294 96/108/295 144/158/296 145/159/297
s 6
f 106/118/298 143/157/299 146/161/300
s off
f 108/120/301 135/149/302 137/151/303 111/124/304
f 117/125/305 118/126/306 113/127/307 112/128/308
f 118/126/309 119/129/310 114/130/311 113/127/312
f 119/129/313 120/131/314 115/132/315 114/130/316
f 112/128/317 113/127/318 116/133/319
f 113/127/320 114/130/321 116/133/322
f 125/139/323 123/136/324 152/167/325
f 130/144/326 129/143/327 98/105/328
s 1
f 132/146/329 131/145/330 96/108/331
s off
f 132/146/332 133/147/333 100/109/334
f 101/111/335 125/138/336 133/147/337
s 2
f 138/152/271 133/147/270 126/140/338
s 8
f 105/116/339 109/121/340 126/140/341
f 135/149/342 126/140/341 109/121/340
s 1
f 140/154/259 131/145/330 141/155/260
f 141/155/260 131/145/330 132/146/329
s 3
f 143/157/281 147/162/280 107/119/343
s off
f 148/163/344 142/156/345 104/115/346 128/142/347
s 4
f 144/158/293 150/165/292 136/150/348 110/123/349
s 5
f 145/159/297 144/158/296 110/123/350
s 9
f 149/164/351 157/172/352 154/169/353 122/135/354
s 6
f 146/161/300 143/157/299 107/119/355 111/124/356
s 10
f 147/162/357 128/142/358 107/119/359
f 128/142/358 108/120/360 107/119/359
s 9
f 145/160/361 149/164/351 122/135/354 97/112/362
s off
f 151/166/363 155/170/364 98/105/365
