# This file uses centimeters as units for non-parametric coordinates.

mtllib Bread.mtl
g default
v 0.092605 -1.734651 -0.160392
v 0.296985 -1.734651 0.193604
v 0.111781 0.000000 -0.193604
v -0.335330 0.000000 -0.193604
v -0.172248 1.734651 -0.160392
v 0.094572 1.556675 -0.163800
v 0.105846 0.536837 -0.183326
v -0.330245 -0.460074 -0.184796
v 0.109387 -0.216534 -0.189459
v 0.335330 -0.000271 0.193604
v 0.099952 1.070035 -0.173117
v -0.321559 1.245847 -0.169751
v 0.307377 0.783168 0.175169
vt 0.353493 0.919565
vt 0.358050 0.893008
vt 0.181129 0.912370
vt 0.151799 0.933967
vt 0.524944 0.900632
vt 0.507207 0.914262
vt 0.406503 0.917736
vt 0.313843 0.892844
vt 0.331977 0.918667
vt 0.348735 0.948350
vt 0.459154 0.915920
vt 0.477978 0.893401
vt 0.436482 0.941756
vn 0.995816 -0.091384 0.000000
vn 0.497908 -0.091384 -0.862402
vn 0.865867 -0.019143 -0.499909
vn 0.865867 -0.019143 -0.499909
vn 0.000000 -0.019143 -0.999817
vn 0.000000 -0.019143 -0.999817
vn -0.500000 0.000000 -0.866026
vn 0.500000 0.000000 -0.866025
vn -0.000000 0.019143 -0.999817
vn -0.000000 0.019143 -0.999817
vn -0.000000 0.019143 -0.999817
vn 0.865867 0.019144 -0.499908
vn 0.865867 0.019144 -0.499908
vn 0.865867 0.019144 -0.499909
s off
g Bread
usemtl lambert2SG
f 2/4/1 1/3/2 9/9/3 10/10/4
f 9/9/5 8/8/6 4/2/7 3/1/8
f 6/6/9 12/12/10 5/5/11
f 11/11/12 13/13/13 7/7/14
g default
v 0.204380 -1.734651 -0.353997
v -0.408761 -1.734651 0.000000
v -0.204381 -1.734651 0.353997
v 0.408760 -1.734651 0.000000
v 0.204380 1.734651 -0.353997
v -0.204381 1.734651 -0.353997
v 0.223556 0.000000 -0.387209
v -0.223556 0.000000 -0.387209
v -0.447111 0.000000 0.000000
v -0.223556 0.000000 0.387209
v 0.223555 0.000000 0.387209
v 0.447111 0.000000 0.000000
v -0.060473 1.734651 -0.353997
v 0.206347 1.556675 -0.357405
v -0.219520 0.365121 -0.380218
v -0.436974 0.458517 0.000000
v -0.215601 0.719567 0.373432
v 0.213769 0.885233 0.370260
v 0.429516 0.795836 0.000000
v 0.217621 0.536837 -0.376931
v -0.218470 -0.460074 -0.378400
v 0.221161 -0.216534 -0.383063
v -0.436237 -0.491824 0.000000
v 0.447105 -0.000271 0.000000
v -0.425619 -0.972121 0.000000
v -0.214299 -0.837400 0.371176
v 0.216442 0.643458 0.374889
v 0.211727 1.070035 -0.366722
v -0.209784 1.245847 -0.363356
v -0.214412 0.827150 0.371372
v -0.082515 0.770917 0.372449
v 0.419152 0.783168 -0.018436
vt 0.353493 0.919565
vt 0.358050 0.893008
vt 0.525032 0.893555
vt 0.524781 0.913656
vt 0.363273 0.866497
vt 0.367968 0.837628
vt 0.384514 0.804159
vt 0.348766 0.948352
vt 0.181129 0.912370
vt 0.191583 0.872215
vt 0.173496 0.849239
vt 0.151799 0.933967
vt 0.524944 0.900632
vt 0.507207 0.914262
vt 0.393197 0.893123
vt 0.408791 0.868373
vt 0.449641 0.843592
vt 0.520020 0.817675
vt 0.438024 0.942991
vt 0.406503 0.917736
vt 0.313843 0.892844
vt 0.331977 0.918667
vt 0.314594 0.868118
vt 0.348735 0.948350
vt 0.267056 0.869701
vt 0.274087 0.843233
vt 0.483011 0.813983
vt 0.459154 0.915920
vt 0.477978 0.893401
vt 0.461852 0.844484
vt 0.471456 0.835559
vt 0.436482 0.941756
vn 0.000000 0.019143 -0.999817
vn 0.000000 0.019143 -0.999817
vn 0.000000 0.019143 -0.999817
vn 0.000000 0.019143 -0.999817
vn -1.000000 0.000000 0.000000
vn -0.500000 0.000000 0.866025
vn -0.865867 0.019142 0.499908
vn -0.865867 0.019142 0.499908
vn 0.000000 0.019143 0.999817
vn 0.500000 0.000000 0.866026
vn 0.000000 0.019143 0.999817
vn -0.000000 0.019143 0.999817
vn 1.000000 0.000000 0.000000
vn 0.500000 0.000000 -0.866025
vn 0.865867 0.019145 -0.499908
vn -0.995816 -0.091384 0.000000
vn -0.497908 -0.091384 0.862402
vn -0.865867 -0.019143 0.499908
vn -0.865867 -0.019143 0.499908
vn 0.995816 -0.091384 0.000000
vn 0.497908 -0.091384 -0.862402
vn 0.865867 -0.019143 -0.499909
vn 0.865867 -0.019143 -0.499909
vn 0.000000 0.019143 -0.999817
vn 0.000000 0.019143 -0.999817
vn 0.000000 0.019143 -0.999817
vn 0.000000 0.019143 -0.999817
vn 0.000000 0.019143 -0.999817
vn 0.000000 0.019143 0.999817
vn 0.865867 0.019145 -0.499909
vn 0.865867 0.019144 -0.499909
vn 0.865866 0.019158 -0.499909
vn -0.865867 -0.019142 -0.499908
vn -0.865867 -0.019142 -0.499908
vn -1.000000 0.000000 0.000000
vn -0.500000 0.000000 -0.866026
vn -0.000000 0.019143 0.999817
vn 0.000000 0.019143 -0.999817
vn 0.000000 0.019143 -0.999817
vn 0.000000 0.019143 -0.999817
vn 0.865867 0.019144 -0.499909
s 1
g BreadBroke1
usemtl lambert2SG
f 20/14/15 21/15/16 28/28/17 33/33/18
s off
f 22/18/19 23/19/20 30/30/21 29/29/22
s 2
f 30/30/23 24/20/24 44/44/25
f 24/20/24 40/40/26 44/44/25
s off
f 25/21/27 20/14/28 33/33/29
f 15/23/30 16/24/31 39/39/32 38/38/33
f 17/25/34 14/22/35 35/35/36 37/37/37
f 27/27/38 26/26/39 18/17/40
s 1
f 33/33/18 28/28/17 42/42/41 41/41/42
s 2
f 30/30/23 44/44/25 43/43/43
s 3
f 45/45/44 41/41/45 32/32/46
s off
f 34/34/47 36/36/48 22/18/49 21/15/50
s 2
f 44/44/25 40/40/26 31/31/51
s off
f 42/42/52 19/16/53 26/26/54
s 3
f 41/41/45 45/45/44 33/33/55
g default
v 0.204380 1.487657 -0.353997
v -0.204381 1.487657 -0.353997
v -0.408761 1.487657 0.000000
v 0.204380 1.487657 0.353997
v 0.408760 1.487657 0.000000
v -0.223556 -0.246994 -0.387209
v -0.447111 -0.246994 0.000000
v -0.223556 -0.246994 0.387209
v 0.223555 -0.246994 0.387209
v 0.447111 -0.246994 0.000000
v 0.206347 1.309682 -0.357405
v 0.205559 1.380974 0.356040
v 0.414982 1.206233 0.000000
v -0.436974 0.211524 0.000000
v -0.215601 0.472574 0.373432
v 0.213769 0.638239 0.370260
v 0.429516 0.548842 0.000000
v -0.218470 -0.707067 -0.378400
v -0.436237 -0.738818 0.000000
v -0.220444 -0.528497 0.381819
v 0.223184 -0.280510 0.386567
v 0.447105 -0.247265 0.000000
v -0.214299 -1.084393 0.371176
v 0.209840 -1.487657 0.363455
v 0.216442 0.396464 0.374889
v 0.430132 0.520989 0.000000
v 0.211727 0.823041 -0.366722
v -0.209784 0.998853 -0.363356
v -0.422186 0.880388 0.000000
v -0.214412 0.580157 0.371372
v -0.082515 0.523923 0.372449
vt 0.358050 0.893008
vt 0.525032 0.893555
vt 0.524781 0.913656
vt 0.363273 0.866497
vt 0.535474 0.873595
vt 0.367968 0.837628
vt 0.384514 0.804159
vt 0.332428 0.981805
vt 0.348766 0.948352
vt 0.543318 0.936668
vt 0.625211 0.964784
vt 0.507207 0.914262
vt 0.607204 0.965831
vt 0.511754 0.938564
vt 0.408791 0.868373
vt 0.449641 0.843592
vt 0.481842 0.973119
vt 0.438024 0.942991
vt 0.313843 0.892844
vt 0.314594 0.868118
vt 0.336409 0.839512
vt 0.378857 0.804487
vt 0.327294 0.981294
vt 0.348735 0.948350
vt 0.274087 0.843233
vt 0.175096 0.816291
vt 0.142400 0.962879
vt 0.483011 0.813983
vt 0.441034 0.975491
vt 0.434900 0.943179
vt 0.459154 0.915920
vt 0.477978 0.893401
vt 0.475190 0.871110
vt 0.461852 0.844484
vt 0.471456 0.835559
vn -1.000000 0.000000 0.000000
vn -0.500000 0.000000 0.866025
vn -0.865867 0.019143 0.499908
vn -0.865867 0.019142 0.499908
vn -0.500000 0.000000 0.866025
vn 0.500000 0.000000 0.866026
vn 0.000000 0.019143 0.999817
vn 0.000000 0.019143 0.999817
vn 0.000000 0.019143 0.999817
vn 0.500000 0.000000 0.866026
vn 1.000000 0.000000 0.000000
vn 0.865866 0.019143 0.499910
vn 0.865866 0.019143 0.499910
vn 0.865867 0.019143 0.499909
vn 0.865867 0.019143 0.499909
vn 0.995816 0.091384 0.000000
vn 0.497908 0.091384 0.862402
vn 0.865867 0.019143 -0.499908
vn 0.865867 0.019143 -0.499908
vn 0.497908 0.091384 -0.862402
vn 0.995816 0.091384 0.000000
vn -0.865867 0.019144 0.499909
vn -0.865867 0.019144 0.499909
vn 0.865867 0.019143 0.499909
vn 0.865867 0.019143 0.499909
vn 0.865867 0.019143 -0.499908
vn 0.865867 0.019144 -0.499909
vn -0.865867 -0.019142 -0.499908
vn -0.865867 -0.019142 -0.499908
vn -1.000000 0.000000 0.000000
vn -0.500000 0.000000 -0.866026
vn 0.000000 -0.019143 0.999817
vn 0.000000 -0.019143 0.999817
vn 0.500000 0.000000 0.866026
vn -0.500000 0.000000 0.866025
vn 0.865866 -0.019142 0.499910
vn 0.865866 -0.019142 0.499910
vn 1.000000 0.000000 0.000000
vn 0.500000 0.000000 0.866026
vn 0.000000 -0.019143 0.999817
vn 0.000000 -0.019143 0.999817
vn 0.865866 -0.019143 0.499910
vn -0.865867 0.019143 -0.499908
vn -0.865867 0.019143 -0.499908
vn -0.995816 0.091384 -0.000000
vn -0.497908 0.091384 -0.862402
s 1
g BreadBroke2
usemtl lambert2SG
f 52/49/56 53/51/57 60/61/58 59/60/59
s 2
f 53/51/60 54/52/61 60/61/62
f 60/61/62 54/52/61 76/80/63
f 54/52/61 70/73/64 76/80/63
s off
f 54/53/65 55/54/66 71/75/67 70/74/68
s 3
f 57/58/69 58/59/70 50/55/71 49/56/72
s 4
f 58/59/73 56/57/74 46/48/75 50/55/76
s 1
f 59/60/59 60/61/58 75/79/77 74/78/78
s 3
f 61/62/79 62/63/80 58/59/70 57/58/69
s 4
f 56/57/74 58/59/73 72/76/81
f 62/63/82 72/76/81 58/59/73
s off
f 63/64/83 64/65/84 52/49/85 51/46/86
s 5
f 65/66/87 66/67/88 54/52/89 53/51/90
s 6
f 66/68/91 67/69/92 55/54/93 54/53/94
s 5
f 68/70/95 69/71/96 66/67/88 65/66/87
s 6
f 69/72/97 67/69/92 66/68/91
s off
f 73/77/98 74/78/99 48/50/100 47/47/101
g default
v 0.204380 -1.734651 -0.353997
v -0.204381 -1.734651 -0.353997
v -0.408761 -1.734651 0.000000
v -0.204381 -1.734651 0.353997
v 0.204380 -1.734651 0.353997
v 0.408760 -1.734651 0.000000
v 0.204380 1.734651 -0.353997
v -0.204381 1.734651 -0.353997
v -0.408761 1.734651 0.000000
v -0.204381 1.734651 0.353997
v 0.204380 1.734651 0.353997
v 0.408760 1.734651 0.000000
v -0.000000 -1.947846 0.000000
v -0.000000 1.947846 0.000000
v 0.223556 0.000000 -0.387209
v -0.223556 0.000000 -0.387209
v -0.447111 0.000000 0.000000
v -0.223556 0.000000 0.387209
v 0.223555 0.000000 0.387209
v 0.447111 0.000000 0.000000
vt 0.353493 0.919565
vt 0.358050 0.893008
vt 0.525032 0.893555
vt 0.524781 0.913656
vt 0.363273 0.866497
vt 0.535474 0.873595
vt 0.367968 0.837628
vt 0.564856 0.852006
vt 0.384514 0.804159
vt 0.650044 0.830644
vt 0.332428 0.981805
vt 0.348766 0.948352
vt 0.543318 0.936668
vt 0.625211 0.964784
vt 0.191373 0.892388
vt 0.181129 0.912370
vt 0.016190 0.890119
vt 0.191583 0.872215
vt 0.173496 0.849239
vt 0.091714 0.821121
vt 0.151799 0.933967
vt 0.066738 0.955343
vt 0.700419 0.895823
vn 0.000000 0.019143 -0.999817
vn 0.000000 0.019143 -0.999817
vn 0.000000 0.019143 -0.999817
vn 0.000000 0.019143 -0.999817
vn -0.500000 0.000000 -0.866026
vn -1.000000 0.000000 0.000000
vn -0.995816 0.091384 -0.000000
vn -0.497908 0.091384 -0.862402
vn -1.000000 0.000000 0.000000
vn -0.500000 0.000000 0.866025
vn -0.497908 0.091384 0.862402
vn -0.995816 0.091384 -0.000000
vn -0.500000 0.000000 0.866025
vn 0.500000 0.000000 0.866026
vn 0.497908 0.091384 0.862402
vn -0.497908 0.091384 0.862402
vn 0.500000 0.000000 0.866026
vn 1.000000 0.000000 0.000000
vn 0.995816 0.091384 0.000000
vn 0.497908 0.091384 0.862402
vn 1.000000 0.000000 0.000000
vn 0.500000 0.000000 -0.866025
vn 0.497908 0.091384 -0.862402
vn 0.995816 0.091384 0.000000
vn -0.497908 -0.091384 -0.862402
vn 0.497908 -0.091384 -0.862402
vn 0.000000 -1.000000 0.000000
vn -0.995816 -0.091384 0.000000
vn -0.497908 -0.091384 -0.862402
vn 0.000000 -1.000000 0.000000
vn -0.497908 -0.091384 0.862402
vn -0.995816 -0.091384 0.000000
vn 0.000000 -1.000000 0.000000
vn 0.497908 -0.091384 0.862402
vn -0.497908 -0.091384 0.862402
vn 0.000000 -1.000000 0.000000
vn 0.995816 -0.091384 0.000000
vn 0.497908 -0.091384 0.862402
vn 0.000000 -1.000000 0.000000
vn 0.497908 -0.091384 -0.862402
vn 0.995816 -0.091384 0.000000
vn 0.000000 -1.000000 0.000000
vn 0.497908 0.091384 -0.862402
vn -0.497908 0.091384 -0.862402
vn 0.000000 1.000000 0.000000
vn -0.497908 0.091384 -0.862402
vn -0.995816 0.091384 -0.000000
vn 0.000000 1.000000 0.000000
vn -0.995816 0.091384 -0.000000
vn -0.497908 0.091384 0.862402
vn 0.000000 1.000000 0.000000
vn -0.497908 0.091384 0.862402
vn 0.497908 0.091384 0.862402
vn 0.000000 1.000000 0.000000
vn 0.497908 0.091384 0.862402
vn 0.995816 0.091384 0.000000
vn 0.000000 1.000000 0.000000
vn 0.995816 0.091384 0.000000
vn 0.497908 0.091384 -0.862402
vn 0.000000 1.000000 0.000000
vn 0.497908 -0.091384 -0.862402
vn -0.497908 -0.091384 -0.862402
vn -0.500000 0.000000 -0.866026
vn 0.500000 0.000000 -0.866025
vn -0.497908 -0.091384 -0.862402
vn -0.995816 -0.091384 0.000000
vn -1.000000 0.000000 0.000000
vn -0.500000 0.000000 -0.866026
vn -0.995816 -0.091384 0.000000
vn -0.497908 -0.091384 0.862402
vn -0.500000 0.000000 0.866025
vn -1.000000 0.000000 0.000000
vn -0.497908 -0.091384 0.862402
vn 0.497908 -0.091384 0.862402
vn 0.500000 0.000000 0.866026
vn -0.500000 0.000000 0.866025
vn 0.497908 -0.091384 0.862402
vn 0.995816 -0.091384 0.000000
vn 1.000000 0.000000 0.000000
vn 0.500000 0.000000 0.866026
vn 0.995816 -0.091384 0.000000
vn 0.497908 -0.091384 -0.862402
vn 0.500000 0.000000 -0.866025
vn 1.000000 0.000000 0.000000
s off
g BreadBroke3
usemtl lambert2SG
f 91/81/102 92/82/103 84/83/104 83/84/105
f 92/82/106 93/85/107 85/86/108 84/83/109
f 93/85/110 94/87/111 86/88/112 85/86/113
f 94/87/114 95/89/115 87/90/116 86/88/117
f 95/91/118 96/92/119 88/93/120 87/94/121
f 96/92/122 91/81/123 83/84/124 88/93/125
f 78/95/126 77/96/127 89/97/128
f 79/98/129 78/95/130 89/97/131
f 80/99/132 79/98/133 89/97/134
f 81/100/135 80/99/136 89/97/137
f 82/101/138 81/102/139 89/97/140
f 77/96/141 82/101/142 89/97/143
f 83/84/144 84/83/145 90/103/146
f 84/83/147 85/86/148 90/103/149
f 85/86/150 86/88/151 90/103/152
f 86/88/153 87/90/154 90/103/155
f 87/94/156 88/93/157 90/103/158
f 88/93/159 83/84/160 90/103/161
f 77/96/162 78/95/163 92/82/164 91/81/165
f 78/95/166 79/98/167 93/85/168 92/82/169
f 79/98/170 80/99/171 94/87/172 93/85/173
f 80/99/174 81/100/175 95/89/176 94/87/177
f 81/102/178 82/101/179 96/92/180 95/91/181
f 82/101/182 77/96/183 91/81/184 96/92/185
