# This file uses centimeters as units for non-parametric coordinates.

mtllib Cereal.mtl
g default
v -0.878829 1.150815 0.278621
v -0.878829 1.150815 -0.278621
v 0.878829 -1.150815 -0.278621
v -0.866119 -1.150815 0.278621
v 0.093124 1.150815 -0.278621
v 0.878829 -0.680903 0.278621
v 0.649410 -1.150815 -0.278621
v -0.878829 0.538941 -0.278621
v -0.777802 1.150815 0.278621
v -0.286309 -0.116201 -0.278621
v 0.878829 0.946964 -0.278621
v 0.878829 0.669517 0.278621
v -0.561257 -1.150815 -0.278621
v 0.351813 -0.098188 0.278621
v -0.038847 -0.389817 -0.278621
vt 0.154964 0.039136
vt 0.179674 0.040403
vt 0.296884 0.196676
vt 0.154356 0.193822
vt 0.244357 0.041274
vt 0.038182 0.160673
vt 0.281616 0.196470
vt 0.179737 0.081528
vt 0.148241 0.039045
vt 0.219237 0.126093
vt 0.296667 0.055680
vt 0.038042 0.069909
vt 0.201046 0.195385
vt 0.073194 0.121980
vt 0.235734 0.144705
vn 0.000000 0.000000 1.000000
vn 0.000000 0.000000 1.000000
vn 0.000000 0.000000 1.000000
vn 0.000000 0.000000 -1.000000
vn 0.000000 -0.000000 -1.000000
vn 0.000000 -0.000000 -1.000000
vn 0.000000 -0.000000 -1.000000
vn -0.000000 0.000000 -1.000000
vn -0.000000 0.000000 -1.000000
vn -0.000000 0.000000 -1.000000
vn 0.000000 0.000000 -1.000000
vn 0.000000 0.000000 1.000000
vn 0.000000 0.000000 1.000000
vn 0.000000 0.000000 1.000000
vn 0.000000 0.000000 -1.000000
vn 0.000000 -0.000000 -1.000000
s off
g CerealBroke1
usemtl lambert2SG
f 1/1/1 4/4/2 9/9/3
f 2/2/4 5/5/5 10/10/6 8/8/7
s 1
f 7/7/8 15/15/9 11/11/10 3/3/11
s off
f 12/12/12 14/14/13 6/6/14
s 1
f 13/13/15 15/15/9 7/7/8
f 15/15/9 10/10/16 11/11/10
g default
v -0.878829 -1.048889 0.278621
v -0.878829 -1.048889 -0.278621
v 0.878829 -1.048889 -0.278621
v -0.866119 -1.048889 0.278621
v -0.596145 -1.048889 -0.278621
v 0.649410 -1.048889 -0.278621
v -0.878829 0.640867 -0.278621
v -0.326339 0.753563 0.278621
v -0.286309 -0.014276 -0.278621
v 0.878829 1.048889 -0.278621
v -0.370795 -1.048889 0.278621
v -0.561257 -1.048889 -0.278621
v 0.351813 0.003738 0.278621
v -0.038847 -0.287892 -0.278621
vt 0.155202 0.193833
vt 0.296884 0.196676
vt 0.179912 0.195100
vt 0.154356 0.193822
vt 0.198725 0.195353
vt 0.281616 0.196470
vt 0.179737 0.081528
vt 0.118247 0.072191
vt 0.219237 0.126093
vt 0.296667 0.055680
vt 0.121393 0.193377
vt 0.201046 0.195385
vt 0.073194 0.121980
vt 0.235734 0.144705
vn -1.000000 0.000000 0.000000
vn -1.000000 0.000000 0.000000
vn -1.000000 0.000000 0.000000
vn -0.000000 0.000000 -1.000000
vn -0.000000 -0.000000 -1.000000
vn -0.000000 0.000000 -1.000000
vn -0.000000 0.000000 -1.000000
vn -0.000000 0.000000 -1.000000
vn -0.000000 0.000000 -1.000000
vn 0.000000 0.000000 -1.000000
vn -0.000000 0.000000 1.000000
vn -0.000000 0.000000 1.000000
vn -0.000000 0.000000 1.000000
vn -0.000000 0.000000 1.000000
s off
g CerealBroke3
usemtl lambert2SG
f 17/18/17 16/16/18 22/22/19
s 1
f 20/20/20 24/24/21 29/29/22 27/27/23
f 21/21/24 29/29/22 25/25/25 18/17/26
f 27/27/23 29/29/22 21/21/24
s off
f 26/26/27 28/28/28 23/23/29 19/19/30
s 1
f 29/29/22 24/24/21 25/25/25
g default
v -0.878829 -1.150815 0.278621
v 0.878829 -1.150815 0.278621
v -0.878829 1.150815 0.278621
v 0.878829 1.150815 0.278621
v -0.878829 1.150815 -0.278621
v 0.878829 1.150815 -0.278621
v -0.878829 -1.150815 -0.278621
v 0.878829 -1.150815 -0.278621
vt 0.155202 0.193833
vt 0.038231 0.192257
vt 0.037992 0.037560
vt 0.154964 0.039136
vt 0.150475 0.544748
vt 0.152051 0.427777
vt 0.176761 0.429044
vt 0.175185 0.546015
vt 0.179674 0.040403
vt 0.296646 0.041979
vt 0.296884 0.196676
vt 0.179912 0.195100
vt 0.178336 0.312072
vt 0.153627 0.310805
vn 0.000000 0.000000 1.000000
vn 0.000000 0.000000 1.000000
vn 0.000000 0.000000 1.000000
vn 0.000000 0.000000 1.000000
vn 0.000000 1.000000 0.000000
vn 0.000000 1.000000 0.000000
vn 0.000000 1.000000 0.000000
vn 0.000000 1.000000 0.000000
vn 0.000000 0.000000 -1.000000
vn 0.000000 0.000000 -1.000000
vn 0.000000 0.000000 -1.000000
vn 0.000000 0.000000 -1.000000
vn 0.000000 -1.000000 0.000000
vn 0.000000 -1.000000 0.000000
vn 0.000000 -1.000000 0.000000
vn 0.000000 -1.000000 0.000000
vn 1.000000 0.000000 0.000000
vn 1.000000 0.000000 0.000000
vn 1.000000 0.000000 0.000000
vn 1.000000 0.000000 0.000000
vn -1.000000 0.000000 0.000000
vn -1.000000 0.000000 0.000000
vn -1.000000 0.000000 0.000000
vn -1.000000 0.000000 0.000000
s off
g Cereal
usemtl lambert2SG
f 30/30/31 31/31/32 33/32/33 32/33/34
f 32/34/35 33/35/36 35/36/37 34/37/38
f 34/38/39 35/39/40 37/40/41 36/41/42
f 36/41/43 37/42/44 31/43/45 30/30/46
f 31/43/47 37/42/48 35/36/49 33/35/50
f 36/41/51 30/30/52 32/33/53 34/38/54
g default
v -0.878829 -1.150815 0.278621
v 0.878829 -1.150815 0.278621
v -0.878829 1.150815 0.278621
v 0.878829 1.150815 0.278621
v 0.878829 1.150815 -0.278621
v -0.878829 -1.150815 -0.278621
v 0.878829 -1.150815 -0.278621
v -0.866119 -1.150815 0.278621
v 0.093124 1.150815 -0.278621
v -0.596145 -1.150815 -0.278621
v -0.878829 1.150815 0.192595
v 0.649410 -1.150815 -0.278621
v -0.878829 0.538941 -0.278621
v 0.878829 -1.150815 -0.083267
v 0.878829 0.946964 -0.278621
v -0.370795 -1.150815 0.278621
v 0.878829 0.669517 0.278621
v -0.561257 -1.150815 -0.278621
v -0.038847 -0.389817 -0.278621
vt 0.155202 0.193833
vt 0.154964 0.039136
vt 0.152051 0.427777
vt 0.176761 0.429044
vt 0.296646 0.041979
vt 0.179912 0.195100
vt 0.178336 0.312072
vt 0.153627 0.310805
vt 0.154356 0.193822
vt 0.155191 0.194679
vt 0.244357 0.041274
vt 0.179659 0.213913
vt 0.158779 0.039332
vt 0.281616 0.196470
vt 0.178542 0.296804
vt 0.179737 0.081528
vt 0.169674 0.311628
vt 0.296667 0.055680
vt 0.176901 0.418684
vt 0.154747 0.227643
vt 0.152381 0.403317
vt 0.201046 0.195385
vt 0.179627 0.216234
vt 0.235734 0.144705
vn 0.000000 0.000000 1.000000
vn 0.000000 0.000000 1.000000
vn 0.000000 0.000000 1.000000
vn 0.000000 -1.000000 0.000000
vn 0.000000 -1.000000 0.000000
vn 0.000000 -1.000000 0.000000
vn 0.000000 -1.000000 0.000000
vn -1.000000 0.000000 0.000000
vn -1.000000 0.000000 0.000000
vn -1.000000 0.000000 0.000000
vn -1.000000 0.000000 0.000000
vn -1.000000 0.000000 0.000000
vn -1.000000 0.000000 0.000000
vn 0.000000 -1.000000 0.000000
vn 0.000000 -1.000000 0.000000
vn 1.000000 0.000000 0.000000
vn 1.000000 0.000000 0.000000
vn 1.000000 0.000000 0.000000
vn 0.000000 0.000000 -1.000000
vn 0.000000 0.000000 -1.000000
vn 0.000000 0.000000 -1.000000
vn 0.000000 -1.000000 0.000000
vn 0.000000 -1.000000 0.000000
vn 0.000000 -1.000000 0.000000
vn 0.000000 -1.000000 0.000000
vn 1.000000 0.000000 0.000000
vn 1.000000 0.000000 0.000000
vn 0.000000 0.000000 -1.000000
vn -0.000000 0.000000 -1.000000
vn -0.000000 0.000000 -1.000000
s off
g CerealBroke2
usemtl lambert2SG
f 38/44/55 45/52/56 40/45/57
s 1
f 43/49/58 47/55/59 45/53/60 38/44/61
s off
f 43/49/62 38/44/63 50/59/64
f 40/45/65 48/56/66 38/44/67
s 1
f 45/53/60 47/55/59 55/66/68 53/63/69
s 2
f 52/62/70 54/64/71 44/50/72
s off
f 55/65/73 56/67/74 49/57/75
s 3
f 39/51/76 53/63/77 51/60/78
f 53/63/77 49/58/79 51/60/78
s 2
f 54/64/71 52/62/70 42/47/80 41/46/81
s off
f 42/48/82 52/61/83 46/54/84
